<svg width="89" height="89" viewBox="0 0 89 89" fill="none" xmlns="http://www.w3.org/2000/svg">
<path d="M8.7084 66.2596C8.86393 62.8995 11.3116 59.8267 12.5648 58.6055C13.6218 59.8304 14.5508 61.1601 15.3374 62.5739L15.7472 63.3103C16.5959 64.4375 17.8467 66.15 18.1142 67.2013C18.3871 68.2735 18.5516 70.0757 17.7934 71.3514C17.0353 72.6271 17.223 76.9106 14.6005 78.6608C12.5024 80.0609 10.5419 81.8592 9.82382 82.5833C9.61221 82.6973 9.40599 82.076 10.274 78.6789C11.359 74.4326 8.514 70.4599 8.7084 66.2596Z" fill="#9F5832"/>
<path d="M7.15971 81.0681C6.70172 79.981 5.79298 77.4075 5.82195 75.8112C5.84807 74.3722 7.961 72.2643 9.24376 70.7197L10.118 73.4541C10.6525 76.2672 11.5522 82.2254 10.8747 83.5534C10.1972 84.8814 9.08927 84.8504 8.61998 84.6689L7.15971 81.0681Z" fill="#9F5832"/>
<path d="M6.82699 65.6508C6.98252 62.2906 9.43019 59.2179 10.6834 57.9966C11.7404 59.2215 12.6694 60.5512 13.456 61.965L13.8658 62.7014C14.7145 63.8286 15.9653 65.5411 16.2328 66.5924C16.5057 67.6646 16.6702 69.4668 15.912 70.7425C15.1539 72.0183 15.3416 76.3017 12.7191 78.0519C10.621 79.452 8.66045 81.2503 7.94241 81.9744C7.73081 82.0884 7.52459 81.4672 8.39257 78.07C9.47755 73.8237 6.63259 69.851 6.82699 65.6508Z" fill="#D74745"/>
<path d="M18.7513 36.6429C22.2023 36.6143 25.9693 40.0121 27.4214 41.7145L21.3364 48.236L15.5543 51.2707C15.1821 46.4067 15.3004 36.6716 18.7513 36.6429Z" fill="#A5307A"/>
<path d="M19.7647 38.7914C21.8861 38.5083 24.647 40.6313 25.7623 41.7282L21.1457 45.2509L16.3604 48.4431C16.6112 45.3438 17.6432 39.0744 19.7647 38.7914Z" fill="#FC4E8D"/>
<path d="M13.1914 58.4355L13.6626 55.3C14.9544 51.1688 16.5818 47.5292 21.0201 43.0422C24.5708 39.4527 31.8647 38.1724 35.0678 37.981C37.9413 38.0121 45.1879 39.0178 51.1866 42.7918C57.1854 46.5659 59.075 54.5384 59.2699 58.053C60.1689 59.8585 61.7122 64.7244 60.693 69.7434C59.419 76.0171 48.5315 82.3706 35.4345 82.1497C22.3375 81.9288 13.824 74.7474 11.9625 70.1479C10.4732 66.4683 12.1612 60.8064 13.1914 58.4355Z" fill="#EAA13F"/>
<mask id="mask0" mask-type="alpha" maskUnits="userSpaceOnUse" x="11" y="37" width="51" height="46">
<path d="M13.1234 58.2596L13.595 55.1032C14.8879 50.9444 16.5167 47.2805 20.9591 42.7637C24.513 39.1503 31.814 37.8619 35.0203 37.6693C37.8965 37.7008 45.1502 38.7135 51.155 42.5131C57.1597 46.3126 59.0515 54.3387 59.2468 57.8767C60.1468 59.6944 61.6919 64.5929 60.6719 69.6454C59.3969 75.9611 48.4991 82.3566 35.3894 82.1336C22.2796 81.9106 13.7575 74.6807 11.8939 70.0503C10.4031 66.346 12.0924 60.6464 13.1234 58.2596Z" fill="#EBA646"/>
</mask>
<g mask="url(#mask0)">
<path d="M16.9806 63.205C15.2331 60.5648 12.138 59.4843 10.8088 59.2741L10.3566 64.7533L11.4168 72.5429L19.2821 80.6079L36.2298 83.4538L52.4768 81.8256L62.3516 72.1201L62.7391 58.8431C61.6865 58.6306 58.7595 59.1416 55.4721 62.8855C51.3628 67.5655 46.6939 64.7835 45.6957 64.46C44.6975 64.1364 41.0281 61.844 36.5471 61.7152C32.0662 61.5865 29.424 63.1018 26.45 64.6197C23.476 66.1377 19.165 66.5054 16.9806 63.205Z" fill="white"/>
<path d="M49.1146 76.5442C59.6999 72.4742 61.2938 64.6073 60.7676 61.1826L62.6505 68.1357L60.3663 72.8005L53.2858 79.3303L39.88 83.4237L19.9707 83.589L10.1033 74.2133C9.97208 71.7255 9.9001 65.7197 10.6623 61.5985C12.0709 71.3763 18.0657 73.9813 21.2346 75.946C24.4034 77.9108 35.883 81.6318 49.1146 76.5442Z" fill="#CDCDCD"/>
</g>
<path d="M14.0445 64.4226C12.9869 58.7976 21.3497 49.9468 25.6724 46.3207C23.5583 45.3717 18.483 45.8975 14.1301 49.2477C8.68887 53.4354 7.9458 60.7111 8.2904 65.2369C8.76322 71.4467 14.1133 72.7071 16.2364 74.7607C18.3596 76.8144 16.2571 77.2461 16.2777 79.7314C16.2942 81.7197 18.4647 81.5934 20.0079 81.4426C19.3059 81.4484 17.6557 81.509 17.6408 79.7201C17.6282 78.2017 21.1273 78.33 20.6717 74.1913C20.2161 70.0525 15.3666 71.4539 14.0445 64.4226Z" fill="#D74745"/>
<path d="M61.7308 56.6094C61.671 49.398 55.7089 41.3485 52.7354 38.2252L50.6301 38.2427C52.193 40.5192 55.7491 46.1847 57.4703 50.6349C59.622 56.1976 57.5452 59.649 55.4613 62.242C53.3773 64.8349 52.9812 67.8432 56.3639 69.5322C59.7467 71.2212 61.0312 73.7862 59.3506 74.2294C58.006 74.584 57.6556 72.9557 57.6485 72.0972C57.0942 72.9603 56.3239 74.8555 57.677 75.5311C59.3684 76.3756 61.8983 76.7839 61.8662 72.9207C61.8342 69.0575 61.1471 70.8899 61.5432 67.8817C61.9393 64.8735 61.8056 65.6235 61.7308 56.6094Z" fill="#D74745"/>
<path d="M31.511 67.197C29.0136 67.736 27.2779 66.2532 26.8269 65.5083C26.1782 67.725 27.2495 69.5358 27.8663 70.1641C28.2089 71.2554 29.3655 73.9523 31.2505 76.0097C33.6069 78.5815 37.772 78.0287 40.4317 76.9701C43.0915 75.9114 44.561 72.0986 45.2108 70.0201C47.0638 68.2081 46.6232 66.035 46.1713 65.175C45.7309 65.6969 44.5171 66.8126 43.1852 67.1001C41.5203 67.4595 40.6821 66.9481 39.8425 66.2641C40.6721 65.7389 41.6555 63.6577 41.1466 62.6254C40.6377 61.5931 31.6304 61.4951 31.4737 62.7057C31.3169 63.9163 31.6605 65.1227 33.3383 66.3181C32.8092 66.8753 31.8996 67.1362 31.511 67.197Z" fill="#CDCDCD"/>
<path d="M30.8343 68.9704C28.0862 68.9932 26.943 66.5889 26.7149 65.3839C26.2132 68.0087 27.8392 69.455 28.715 69.85C29.4481 72.7749 31.9607 78.5471 36.1459 78.2365C41.3774 77.8482 43.2973 72.66 43.7637 69.7251C45.8494 68.7423 45.9165 66.3165 45.6894 65.2264C45.4268 66.4355 44.2145 68.8593 41.4665 68.8821C38.7185 68.9049 37.3619 67.0771 37.0271 66.1604C38.0622 66.0368 40.259 65.306 40.7664 63.3707C41.4007 60.9517 38.1264 60.6341 35.9999 60.6517C33.8735 60.6694 30.7684 61.04 31.4428 63.4481C31.9822 65.3747 34.1909 66.069 35.2278 66.1753C34.9083 67.0975 33.5823 68.9475 30.8343 68.9704Z" fill="#1B110B"/>
<path d="M35.9592 71.2095C33.2024 71.2324 31.492 72.7672 30.9815 73.5317C31.7369 74.5899 33.8681 76.701 36.3492 76.6804C38.8303 76.6598 40.5815 74.5164 41.147 73.4473C40.5664 72.6918 38.7159 71.1866 35.9592 71.2095Z" fill="#A5307A"/>
<mask id="mask1" mask-type="alpha" maskUnits="userSpaceOnUse" x="31" y="70" width="11" height="7">
<path d="M36.1253 70.8448C33.4708 70.8669 31.8254 72.5397 31.3346 73.3734C32.0632 74.5288 34.1176 76.8347 36.5067 76.8149C38.8959 76.7951 40.5799 74.4582 41.1233 73.2922C40.5634 72.4672 38.7799 70.8228 36.1253 70.8448Z" fill="#A33282"/>
</mask>
<g mask="url(#mask1)">
<path d="M36.3245 74.8254C33.671 74.9802 32.2168 73.0344 31.8214 72.0421L35.1218 69.8577L37.2786 69.8398L40.6161 72.135C40.2912 72.9673 38.9779 74.6706 36.3245 74.8254Z" fill="#FC4E8D"/>
</g>
<ellipse cx="36.3632" cy="62.4083" rx="2.34598" ry="0.586495" transform="rotate(-0.475606 36.3632 62.4083)" fill="#FFFEF2"/>
<path d="M15.3257 36.8544C12.8959 42.0322 13.1531 47.8619 13.7467 50.7194C27.5598 42.4353 44.8247 42.4828 58.592 50.8426L59.2592 51.2477C59.9447 49.2515 58.9845 42.2994 57.0875 37.6449C53.374 28.5334 46.1562 24.8808 36.4441 24.697C26.732 24.5131 18.3628 30.3822 15.3257 36.8544Z" fill="#58595B"/>
<mask id="mask2" mask-type="alpha" maskUnits="userSpaceOnUse" x="13" y="24" width="47" height="28">
<path d="M15.326 36.8544C12.8962 42.0322 13.1534 47.8619 13.747 50.7194C27.5601 42.4353 44.825 42.4828 58.5923 50.8426L59.2595 51.2477C59.945 49.2515 58.9848 42.2994 57.0878 37.6449C53.3743 28.5334 46.1565 24.8808 36.4444 24.697C26.7323 24.5131 18.3631 30.3822 15.326 36.8544Z" fill="#5F5A5A"/>
</mask>
<g mask="url(#mask2)">
<path opacity="0.5" d="M26.5227 31.0043L22.823 32.7945C21.9184 36.8685 16.4867 38.8426 13.8839 39.3204L12.7694 46.3678L34.808 39.9287L59.6923 46.5648L58.2735 40.5159C56.3968 40.5315 50.9351 35.7544 48.4389 33.3639C49.0813 35.3918 48.2037 36.4288 47.6845 36.6937C43.1608 38.1389 42.2483 33.4153 42.3575 30.8728L36.8676 28.9633L35.7157 31.5145C34.5801 36.0205 30.6719 36.2484 27.1498 35.8867C24.3321 35.5973 25.5577 32.5111 26.5227 31.0043Z" fill="#302F30"/>
</g>
<path d="M12.0858 17.6084C11.9746 23.4847 20.6964 28.5485 24.115 29.103C24.0177 34.2402 20.3353 38.607 15.2884 39.5701L14.6069 39.7002C12.3463 38.3511 6.73147 33.1828 5.34982 23.3593C3.96818 13.5357 10.9285 4.68656 14.5814 1.4899C13.3863 4.24321 12.197 11.732 12.0858 17.6084Z" fill="#E3C19C"/>
<path d="M15.164 37.614C8.45376 35.9875 6.4629 27.2363 6.30626 23.064C7.18455 26.7217 10.0352 34.1253 14.4112 34.4789C18.7873 34.8325 19.2047 30.101 17.1991 29.0307C12.7246 26.6429 11.4108 20.7655 11.6336 17.835C12.5006 25.5069 19.6113 28.9228 23.0583 29.6718C22.6974 34.8298 17.6451 37.1158 15.164 37.614Z" fill="#F0D6B9"/>
<path d="M19.1784 34.7892C21.1207 32.8416 22.5272 30.0571 22.7214 28.4071C22.7401 27.4153 24.9515 26.9611 24.9174 28.7655C24.8705 31.2451 23.5861 34.3766 21.3463 36.6354C19.6124 38.3841 15.1561 40.6663 13.95 39.9681C12.5499 39.1576 12.675 38.4557 13.0102 37.9659C14.1536 37.8222 17.0055 36.9682 19.1784 34.7892Z" fill="#513933"/>
<path d="M35.243 25.1388C36.7623 27.9182 35.6964 35.7896 34.9735 39.3778C37.0952 39.7454 41.3405 40.3824 41.3479 39.9896C42.914 35.1075 42.0713 27.724 41.6174 25.7507C41.1635 23.7774 35.7619 23.6751 35.243 25.1388Z" fill="#949698"/>
<mask id="mask3" mask-type="alpha" maskUnits="userSpaceOnUse" x="34" y="24" width="9" height="17">
<path d="M35.243 25.1388C36.7623 27.9182 35.6964 35.7896 34.9735 39.3778C37.0952 39.7454 41.3405 40.3824 41.3479 39.9896C42.914 35.1075 42.0713 27.724 41.6174 25.7507C41.1635 23.7774 35.7619 23.6751 35.243 25.1388Z" fill="#949698"/>
</mask>
<g mask="url(#mask3)">
<path d="M34.6068 39.2396C35.7548 32.6924 35.6736 26.9313 35.4895 24.8691C36.3042 26.4473 36.5681 34.1054 36.5983 37.7372L40.8585 37.9495C41.6452 36.1599 42.1211 29.1065 42.2606 25.8035C43.3004 30.3514 42.4366 36.9458 41.8748 39.6745C40.6692 39.2883 36.5271 39.2236 34.6068 39.2396Z" fill="#C4C4C4"/>
</g>
<path d="M71.1424 28.2886C65.275 27.9462 59.9289 35.484 59.2402 38.8781C54.1109 38.5788 49.8924 34.7274 49.1286 29.6464L49.0255 28.9603C50.4625 26.7546 55.8477 21.3475 65.7181 20.3536C69.0483 20.0182 72.2304 20.6274 75.1023 21.727L75.3678 23.1384L75.9215 22.0572C81.1713 24.2791 85.2849 28.0593 87.2072 30.4387C84.503 29.1362 77.0098 28.631 71.1424 28.2886Z" fill="#EB983E"/>
<path d="M71.1432 28.3853C65.2758 28.0428 59.9297 35.5807 59.241 38.9748C54.1117 38.6755 49.8932 34.8241 49.1294 29.7431L49.0263 29.057C50.4633 26.8513 55.8486 21.4442 65.7189 20.4503C69.0492 20.1149 72.2312 20.7241 75.1032 21.8237L75.3687 23.2351L75.9224 22.1539C81.1721 24.3758 85.2857 28.156 87.208 30.5354C84.5039 29.2328 77.0106 28.7277 71.1432 28.3853Z" fill="#E3C19C"/>
<path d="M49.7945 31.7885C51.3026 25.0506 60.0174 22.9059 64.1862 22.6758C60.5446 23.6184 53.1923 26.599 52.9159 30.9806C52.6394 35.3622 57.3775 35.6962 58.4124 33.672C60.7209 29.1562 66.5743 27.7391 69.5083 27.9103C61.8528 28.9122 58.5627 36.082 57.8746 39.5416C52.711 39.2717 50.3364 34.2604 49.7945 31.7885Z" fill="#F0D6B9"/>
<path d="M37.0818 38.8568C25.6867 38.6411 15.5294 43.9824 11.8751 46.68C10.4798 47.63 10.3092 51.5328 13.7567 51.1098C21.1981 47.3447 26.1467 45.4853 36.9617 45.2018C47.7766 44.9182 57.0165 49.9756 59.9265 51.9837C62.3063 50.857 61.4831 47.6189 60.5193 46.6242C59.5555 45.6294 48.4769 39.0725 37.0818 38.8568Z" fill="#58595B"/>
<mask id="mask4" mask-type="alpha" maskUnits="userSpaceOnUse" x="10" y="38" width="52" height="15">
<path d="M37.0818 38.8568C25.6867 38.6411 15.5294 43.9824 11.8751 46.68C10.4798 47.63 10.3092 51.5328 13.7567 51.1098C21.1981 47.3447 26.1467 45.4853 36.9617 45.2018C47.7766 44.9182 57.0165 49.9756 59.9265 51.9837C62.3063 50.857 61.4831 47.6189 60.5193 46.6242C59.5555 45.6294 48.4769 39.0725 37.0818 38.8568Z" fill="#565759"/>
</mask>
<g mask="url(#mask4)">
<path opacity="0.1" d="M43.0244 42.6073C38.4005 42.1143 39.886 39.2132 41.2068 37.8243C55.0858 34.9664 68.7737 47.5703 73.8827 54.2295C72.2148 59.8496 70.0599 57.957 69.1909 56.3082C63.389 48.085 48.8042 43.2236 43.0244 42.6073Z" fill="#949698"/>
<path opacity="0.1" d="M6.28868 53.1155C3.06212 56.464 1.68295 53.5109 1.39669 51.6158C7.65634 38.9031 26.0075 35.829 34.4007 35.881C37.8149 40.6465 34.9982 41.1867 33.1631 40.8611C23.1099 40.3966 10.3219 48.9298 6.28868 53.1155Z" fill="#949698"/>
</g>
<path d="M53.5017 35.4135C51.6345 33.3938 50.3344 30.558 50.2028 28.9019C50.2215 27.91 48.0289 27.3725 47.9948 29.1769C47.9478 31.6565 49.1127 34.8344 51.2655 37.1763C52.932 38.9893 57.2987 41.4385 58.5304 40.7865C59.9601 40.0296 59.8617 39.3234 59.5453 38.8213C58.4081 38.6344 55.5906 37.6731 53.5017 35.4135Z" fill="#513933"/>
<path d="M38.9577 18.8997C37.4654 20.9327 36.8807 24.4339 36.7749 25.9304C37.5495 26.503 39.4975 27.3247 41.0924 26.0314C41.3238 24.0115 39.7657 20.4353 38.9577 18.8997Z" fill="#E3C19C"/>
<ellipse cx="25.761" cy="57.0123" rx="3.12797" ry="3.90997" transform="rotate(-0.475606 25.761 57.0123)" fill="#1B1A1A"/>
<ellipse rx="3.12797" ry="3.90997" transform="matrix(-0.999966 0.0083008 0.0083008 0.999966 46.4831 56.8406)" fill="#1B1A1A"/>
<rect x="26.1423" y="55.8364" width="1.56399" height="1.95498" rx="0.781994" transform="rotate(-0.475606 26.1423 55.8364)" fill="white"/>
<rect width="1.56399" height="1.95498" rx="0.781994" transform="matrix(-0.999966 0.0083008 0.0083008 0.999966 46.0825 55.6709)" fill="white"/>
<path d="M21.7076 63.3022C19.9976 64.5676 17.9824 62.0297 17.1886 60.6026C19.7142 63.3969 23.8428 61.4597 25.5914 60.1418L24.9855 57.8008L25.9889 60.9206C25.0788 61.1888 23.4175 62.0367 21.7076 63.3022Z" fill="#1B1A1A"/>
<path d="M21.6751 59.3925C19.9652 60.6579 17.9499 58.1201 17.1561 56.6929C19.6817 59.4872 23.8104 57.5501 25.559 56.2322L24.953 53.8911L25.9565 57.0109C25.0463 57.2791 23.385 58.1271 21.6751 59.3925Z" fill="#1B1A1A"/>
<path d="M51.0313 63.0589C52.762 64.2958 54.7348 61.7248 55.5049 60.2847C53.026 63.1206 48.8658 61.2522 47.0955 59.9635L47.6625 57.6128L46.1245 60.7536C47.039 61.0067 49.3006 61.8221 51.0313 63.0589Z" fill="#1B1A1A"/>
<path d="M50.9989 59.1493C52.7296 60.3861 54.7024 57.8152 55.4725 56.3751C52.9936 59.2109 48.8333 57.3425 47.0631 56.0539L47.6301 53.7031L46.0921 56.8439C47.0066 57.097 49.2682 57.9124 50.9989 59.1493Z" fill="#1B1A1A"/>
<circle cx="22.1416" cy="44.9215" r="1.17299" transform="rotate(-0.475606 22.1416 44.9215)" fill="#C4C4C4"/>
<circle cx="30.7237" cy="42.504" r="1.17299" transform="rotate(-0.475606 30.7237 42.504)" fill="#C4C4C4"/>
<circle cx="41.2803" cy="42.4161" r="1.17299" transform="rotate(-0.475606 41.2803 42.4161)" fill="#C4C4C4"/>
<circle cx="51.0745" cy="44.6813" r="1.17299" transform="rotate(-0.475606 51.0745 44.6813)" fill="#C4C4C4"/>
<circle cx="22.1416" cy="44.9215" r="1.17299" transform="rotate(-0.475606 22.1416 44.9215)" fill="#C4C4C4"/>
<circle cx="14.7357" cy="47.7199" r="1.17299" transform="rotate(-0.475606 14.7357 47.7199)" fill="#C4C4C4"/>
<circle cx="51.0745" cy="44.6813" r="1.17299" transform="rotate(-0.475606 51.0745 44.6813)" fill="#C4C4C4"/>
<circle cx="57.7439" cy="47.3629" r="1.17299" transform="rotate(-0.475606 57.7439 47.3629)" fill="#C4C4C4"/>
<path d="M5.72765 80.995C2.62592 73.4053 8.10712 58.7644 11.2354 52.3927L12.3512 67.2852L18.4332 77.1365C15.3899 79.5034 8.55435 81.4414 5.72765 80.995Z" fill="#D74745"/>
<path d="M14.1028 79.317C7.66853 74.4713 10.2215 58.3354 12.3023 50.8731C10.1874 53.0838 7.68113 60.7038 6.69238 64.2374C3.97852 73.4749 4.69037 79.0467 5.38553 80.6779L6.89465 81.1992L9.12684 80.7779C9.48192 80.9005 12.5921 79.8551 14.1028 79.317Z" fill="#E25C5B"/>
<path d="M3.6813 84.4614C2.22733 82.6873 3.24218 81.13 3.93135 80.5732L6.73497 82.2371C6.86141 82.4464 6.81117 82.8795 5.59872 82.9377C4.38626 82.9958 3.81525 83.9777 3.6813 84.4614Z" fill="#D74745"/>
<path d="M3.72318 80.6006C3.85356 79.5327 4.73729 79.2948 5.16285 79.3093L7.49515 80.6117C7.56026 80.9986 7.54103 81.8597 6.9432 82.2096C6.34538 82.5596 4.54743 81.2827 3.72318 80.6006Z" fill="#F8F6F9"/>
<path d="M65.9579 81.7366C69.3347 74.2652 64.3918 59.4339 61.4983 52.9522L59.8394 67.7941L53.4017 77.4167C56.3566 79.8931 63.1167 82.0795 65.9579 81.7366Z" fill="#D74745"/>
<path d="M57.6497 79.754C64.2567 75.1464 62.2946 58.928 60.4878 51.3948C62.5206 53.6812 64.7469 61.3876 65.6059 64.955C67.9806 74.2855 67.0657 79.8275 66.3115 81.4323L64.7843 81.8981L62.569 81.3955C62.2097 81.5052 59.1397 80.3468 57.6497 79.754Z" fill="#E25C5B"/>
<path d="M67.8763 85.2753C69.3941 83.5555 68.4368 81.9623 67.7684 81.3806L64.9059 82.9411C64.7719 83.1456 64.8063 83.5802 66.0158 83.6826C67.2253 83.785 67.7601 84.7871 67.8763 85.2753Z" fill="#D74745"/>
<path d="M67.9755 81.4156C67.8842 80.3437 67.0098 80.0736 66.5839 80.0726L64.2056 81.289C64.1265 81.6732 64.1142 82.5345 64.6989 82.906C65.2835 83.2775 67.1269 82.0672 67.9755 81.4156Z" fill="#F8F6F9"/>
</svg>
